<svg width="26" height="20" viewBox="0 0 26 20" fill="none" xmlns="http://www.w3.org/2000/svg">
<g clip-path="url(#clip0_1_7127)">
<path d="M21.6988 1.87948C20.0545 1.1101 18.3149 0.563428 16.526 0.253906C16.3032 0.656749 16.0429 1.19857 15.8633 1.62962C13.9346 1.33961 12.0236 1.33961 10.1304 1.62962C9.95096 1.19867 9.68475 0.656749 9.45987 0.253906C7.66926 0.563571 5.92818 1.11164 4.28305 1.8835C1.00938 6.83054 0.12191 11.6546 0.565595 16.4103C2.73691 18.0318 4.84114 19.0168 6.9099 19.6614C7.42405 18.9543 7.87853 18.2058 8.26868 17.4235C7.5259 17.1407 6.80983 16.7922 6.129 16.3821C6.30817 16.2493 6.48312 16.1109 6.65359 15.9671C10.7792 17.8968 15.2619 17.8968 19.3383 15.9671C19.5095 16.11 19.6844 16.2483 19.8628 16.3821C19.1808 16.7933 18.4634 17.1425 17.7192 17.4255C18.1115 18.211 18.5652 18.9603 19.078 19.6633C21.1487 19.0189 23.2549 18.0338 25.4262 16.4103C25.9468 10.8973 24.5369 6.11751 21.6988 1.87948ZM8.83078 13.4856C7.59228 13.4856 6.5766 12.3294 6.5766 10.9215C6.5766 9.51351 7.57063 8.35533 8.83078 8.35533C10.091 8.35533 11.1066 9.51146 11.085 10.9215C11.0869 12.3294 10.091 13.4856 8.83078 13.4856ZM17.161 13.4856C15.9225 13.4856 14.9069 12.3294 14.9069 10.9215C14.9069 9.51351 15.9009 8.35533 17.161 8.35533C18.4212 8.35533 19.4368 9.51146 19.4152 10.9215C19.4152 12.3294 18.4212 13.4856 17.161 13.4856Z" fill="#5865F2"/>
</g>
<defs>
<clipPath id="clip0_1_7127">
<rect width="25.0736" height="19.4908" fill="white" transform="translate(0.459534 0.253906)"/>
</clipPath>
</defs>
</svg>
