<svg width="26" height="26" viewBox="0 0 26 26" fill="none" xmlns="http://www.w3.org/2000/svg">
<path d="M13.267 2.552C11.895 2.552 10.5365 2.82223 9.26897 3.34726C8.00144 3.87229 6.84974 4.64183 5.87961 5.61196C3.92035 7.57121 2.81966 10.2285 2.81966 12.9993C2.81966 17.6171 5.81804 21.5348 9.96564 22.9243C10.488 23.0079 10.6552 22.684 10.6552 22.4019V20.6363C7.76125 21.2632 7.14485 19.2364 7.14485 19.2364C6.66428 18.0245 5.9852 17.7006 5.9852 17.7006C5.03449 17.0529 6.05833 17.0738 6.05833 17.0738C7.10307 17.1469 7.65677 18.1499 7.65677 18.1499C8.56569 19.7379 10.1015 19.2677 10.6969 19.017C10.791 18.3379 11.0626 17.8782 11.3551 17.6171C9.03582 17.3559 6.60159 16.4574 6.60159 12.477C6.60159 11.3173 6.99859 10.3875 7.67767 9.64574C7.5732 9.38456 7.20754 8.29804 7.78214 6.88765C7.78214 6.88765 8.65972 6.60557 10.6552 7.95328C11.4805 7.72343 12.379 7.60851 13.267 7.60851C14.155 7.60851 15.0535 7.72343 15.8788 7.95328C17.8743 6.60557 18.7518 6.88765 18.7518 6.88765C19.3265 8.29804 18.9608 9.38456 18.8563 9.64574C19.5354 10.3875 19.9324 11.3173 19.9324 12.477C19.9324 16.4679 17.4877 17.3454 15.158 17.6066C15.5341 17.9305 15.8788 18.5678 15.8788 19.5394V22.4019C15.8788 22.684 16.046 23.0183 16.5788 22.9243C20.7264 21.5244 23.7143 17.6171 23.7143 12.9993C23.7143 11.6274 23.4441 10.2688 22.9191 9.00132C22.3941 7.73379 21.6245 6.58208 20.6544 5.61196C19.6843 4.64183 18.5325 3.87229 17.265 3.34726C15.9975 2.82223 14.639 2.552 13.267 2.552Z" fill="white"/>
</svg>
