<svg width="26" height="26" viewBox="0 0 26 26" fill="none" xmlns="http://www.w3.org/2000/svg">
<g clip-path="url(#clip0_1_7118)">
<path d="M24.8297 13.2881C24.8297 12.4359 24.7606 11.5791 24.6132 10.7407H12.7881V15.5684H19.5598C19.2788 17.1254 18.3759 18.5027 17.0538 19.378V22.5105H21.0938C23.4662 20.327 24.8297 17.1023 24.8297 13.2881Z" fill="#4285F4"/>
<path d="M12.789 25.537C16.1702 25.537 19.0217 24.4268 21.0993 22.5105L17.0593 19.378C15.9353 20.1427 14.4842 20.5757 12.7936 20.5757C9.52293 20.5757 6.74977 18.3692 5.75475 15.4025H1.5858V18.6317C3.71404 22.8652 8.04883 25.537 12.789 25.537Z" fill="#34A853"/>
<path d="M5.74926 15.4025C5.22411 13.8455 5.22411 12.1595 5.74926 10.6024V7.37323H1.58492C-0.193223 10.9157 -0.193223 15.0892 1.58492 18.6317L5.74926 15.4025Z" fill="#FBBC04"/>
<path d="M12.789 5.42465C14.5764 5.39702 16.3038 6.06958 17.5983 7.30414L21.1776 3.72483C18.9111 1.59659 15.903 0.426517 12.789 0.463369C8.04883 0.463369 3.71404 3.13519 1.5858 7.37324L5.75014 10.6024C6.74056 7.63121 9.51833 5.42465 12.789 5.42465Z" fill="#EA4335"/>
</g>
<defs>
<clipPath id="clip0_1_7118">
<rect width="25.0736" height="25.0736" fill="white" transform="translate(0.000854492 0.462524)"/>
</clipPath>
</defs>
</svg>
